# xmcd
#
# Track frame offsets:
#	150
#	12845
#	26210
#	39869
#	58105
#	70227
#	81617
#	92986
#	106762
#	121796
#	136488
#
# Disc length: 2022 seconds
#
# Revision: 0
# Processed by: cddbd v1.5.1PL2 Copyright (c) Steve Scherf et al.
# Submitted via: dBpowerAMP V4.0
#
DISCID=9107e40b
DTITLE=Lynn Anderson - Rose Garden
DYEAR=2005
DGENRE=Country
TTITLE0=Listen To A Country Song
TTITLE1=How Can I Unlove You
TTITLE2=What A Man My Man Is
TTITLE3=Under The Boardwalk
TTITLE4=Even Cowgirls Get The Blues
TTITLE5=Ride, Ride, Ride
TTITLE6=That's A No, No
TTITLE7=Top Of The World
TTITLE8=Cry
TTITLE9=Rose Garden
TTITLE10=Paradise
EXTD=
EXTT0=
EXTT1=
EXTT2=
EXTT3=
EXTT4=
EXTT5=
EXTT6=
EXTT7=
EXTT8=
EXTT9=
EXTT10=
PLAYORDER=
